<svg viewBox="0 0 400 300" fill="none" xmlns="http://www.w3.org/2000/svg">
  <rect width="400" height="300" fill="#f0f9ff"/>
  <rect x="60" y="40" width="280" height="220" rx="8" fill="white" stroke="#0ea5e9" stroke-width="2"/>

  <!-- Header -->
  <rect x="70" y="50" width="120" height="10" rx="2" fill="#0ea5e9"/>
  <rect x="70" y="65" width="200" height="6" rx="2" fill="#e0e7ff"/>

  <!-- Checklist items -->
  <g transform="translate(70, 90)">
    <rect width="16" height="16" rx="3" fill="#10b981" stroke="#10b981" stroke-width="2"/>
    <path d="M3 8l4 4 6-8" stroke="white" stroke-width="2" stroke-linecap="round" stroke-linejoin="round"/>
    <rect x="26" y="4" width="160" height="8" rx="2" fill="#64748b"/>
  </g>

  <g transform="translate(70, 115)">
    <rect width="16" height="16" rx="3" fill="#10b981" stroke="#10b981" stroke-width="2"/>
    <path d="M3 8l4 4 6-8" stroke="white" stroke-width="2" stroke-linecap="round" stroke-linejoin="round"/>
    <rect x="26" y="4" width="140" height="8" rx="2" fill="#64748b"/>
  </g>

  <g transform="translate(70, 140)">
    <rect width="16" height="16" rx="3" fill="white" stroke="#cbd5e1" stroke-width="2"/>
    <rect x="26" y="4" width="180" height="8" rx="2" fill="#94a3b8"/>
  </g>

  <g transform="translate(70, 165)">
    <rect width="16" height="16" rx="3" fill="white" stroke="#cbd5e1" stroke-width="2"/>
    <rect x="26" y="4" width="120" height="8" rx="2" fill="#94a3b8"/>
  </g>

  <g transform="translate(70, 190)">
    <rect width="16" height="16" rx="3" fill="white" stroke="#cbd5e1" stroke-width="2"/>
    <rect x="26" y="4" width="150" height="8" rx="2" fill="#94a3b8"/>
  </g>

  <!-- Progress bar -->
  <rect x="70" y="230" width="260" height="8" rx="4" fill="#e2e8f0"/>
  <rect x="70" y="230" width="104" height="8" rx="4" fill="#10b981"/>

  <!-- Wrench icon decoration -->
  <g transform="translate(300, 50)">
    <circle cx="20" cy="20" r="20" fill="#dbeafe"/>
    <path d="M12 18l3-3m0 0l6 6m-6-6v4m6-4l-1.5 1.5M28 18c0 3.314-2.686 6-6 6s-6-2.686-6-6 2.686-6 6-6 6 2.686 6 6z" stroke="#0ea5e9" stroke-width="2" stroke-linecap="round"/>
  </g>
</svg>
